<svg width="368" height="172" viewBox="0 0 368 172" fill="none" xmlns="http://www.w3.org/2000/svg">
<path d="M34.6 110.7C28.6667 110.7 23.4333 109.467 18.9 107C14.3667 104.533 10.8667 101.067 8.4 96.6C5.93333 92.1333 4.7 87 4.7 81.2C4.7 72.8667 6.43333 65.4667 9.9 59C13.4333 52.4667 18.3333 47.4 24.6 43.8C30.9333 40.2 38.1667 38.4 46.3 38.4C52.3667 38.4 57.6667 39.6333 62.2 42.1C66.8 44.5 70.3333 47.9333 72.8 52.4C75.2667 56.8 76.5 61.9 76.5 67.7C76.5 75.9667 74.7333 83.3667 71.2 89.9C67.6667 96.4333 62.7333 101.533 56.4 105.2C50.0667 108.867 42.8 110.7 34.6 110.7ZM37.6 92.5C41.5333 92.5 44.9667 91.4667 47.9 89.4C50.9 87.3333 53.1667 84.6 54.7 81.2C56.3 77.7333 57.1 74 57.1 70C57.1 65.7333 55.9333 62.4333 53.6 60.1C51.3333 57.7 48.0667 56.5 43.8 56.5C39.8667 56.5 36.4 57.5333 33.4 59.6C30.4 61.6 28.1 64.3 26.5 67.7C24.9 71.1 24.1 74.8333 24.1 78.9C24.1 83.1 25.2667 86.4333 27.6 88.9C29.9333 91.3 33.2667 92.5 37.6 92.5ZM179.011 39.5L166.511 110H147.011L153.911 71L133.611 110H117.211L110.811 70.8L103.911 110H84.2109L96.7109 39.5H120.411L130.111 85.2L155.411 39.5H179.011ZM229.368 98.5H204.368L198.568 110H177.968L216.068 39.5H238.668L251.868 110H231.168L229.368 98.5ZM227.068 83.6L223.568 60.7L211.968 83.6H227.068ZM306.556 39.5C313.956 39.5 319.59 41.1667 323.456 44.5C327.323 47.7667 329.256 52.1333 329.256 57.6C329.256 59.2667 329.123 60.7667 328.856 62.1C328.056 66.9 326.023 71.1333 322.756 74.8C319.49 78.4 315.156 80.9667 309.756 82.5L320.756 110H298.956L289.556 84H287.456L282.856 110H263.156L275.656 39.5H306.556ZM289.856 70.6H299.556C304.756 70.6 307.823 68.1333 308.756 63.2C308.89 62.4 308.956 61.8333 308.956 61.5C308.956 59.7 308.356 58.3 307.156 57.3C306.023 56.3 304.323 55.8 302.056 55.8H292.356L289.856 70.6Z" fill="white"/>
<path d="M65.95 152H56.1L46.6 132.3L43.1 152H33.25L39.5 116.75H49.3L58.85 136.7L62.35 116.75H72.15L65.95 152ZM94.8324 146.25H82.3324L79.4324 152H69.1324L88.1824 116.75H99.4824L106.082 152H95.7324L94.8324 146.25ZM93.6824 138.8L91.9324 127.35L86.1324 138.8H93.6824ZM123.827 152.35C119.76 152.35 116.477 151.517 113.977 149.85C111.51 148.15 110.277 145.683 110.277 142.45C110.277 142.183 110.31 141.717 110.377 141.05H120.727C120.627 142.183 120.86 143.067 121.427 143.7C121.993 144.333 122.86 144.65 124.027 144.65C124.993 144.65 125.76 144.433 126.327 144C126.927 143.567 127.227 142.95 127.227 142.15C127.227 141.217 126.793 140.45 125.927 139.85C125.093 139.25 123.727 138.55 121.827 137.75C119.927 136.95 118.36 136.2 117.127 135.5C115.893 134.767 114.827 133.783 113.927 132.55C113.027 131.283 112.577 129.717 112.577 127.85C112.577 125.417 113.177 123.333 114.377 121.6C115.577 119.833 117.243 118.5 119.377 117.6C121.543 116.667 124.01 116.2 126.777 116.2C129.277 116.2 131.493 116.6 133.427 117.4C135.36 118.167 136.86 119.283 137.927 120.75C139.027 122.217 139.577 123.95 139.577 125.95C139.577 126.483 139.56 126.883 139.527 127.15H128.977C129.01 126.983 129.027 126.75 129.027 126.45C129.027 125.65 128.777 125.033 128.277 124.6C127.777 124.133 127.093 123.9 126.227 123.9C125.327 123.9 124.593 124.133 124.027 124.6C123.493 125.033 123.227 125.65 123.227 126.45C123.227 127.317 123.643 128.067 124.477 128.7C125.343 129.3 126.677 130.017 128.477 130.85C130.41 131.75 131.993 132.6 133.227 133.4C134.493 134.167 135.577 135.2 136.477 136.5C137.377 137.8 137.827 139.4 137.827 141.3C137.827 143.4 137.26 145.3 136.127 147C134.993 148.667 133.377 149.983 131.277 150.95C129.177 151.883 126.693 152.35 123.827 152.35ZM178.618 116.75L172.418 152H162.568L165.068 137.85H153.168L150.668 152H140.818L147.068 116.75H156.868L154.518 130.05H166.468L168.818 116.75H178.618ZM201.327 146.25H188.827L185.927 152H175.627L194.677 116.75H205.977L212.577 152H202.227L201.327 146.25ZM200.177 138.8L198.427 127.35L192.627 138.8H200.177ZM271.621 116.75L256.771 152H244.721L243.671 130.35L234.871 152H222.821L220.521 116.75H231.121L231.021 140.85L240.771 116.75H251.521L252.671 140.75L261.021 116.75H271.621ZM292.879 146.25H280.379L277.479 152H267.179L286.229 116.75H297.529L304.129 152H293.779L292.879 146.25ZM291.729 138.8L289.979 127.35L284.179 138.8H291.729ZM340.073 116.75L338.673 124.55H329.323L324.473 152H314.623L319.473 124.55H310.173L311.573 116.75H340.073ZM353.499 116.75L347.299 152H337.449L343.699 116.75H353.499ZM357.53 152.4C355.997 152.4 354.78 152.017 353.88 151.25C353.013 150.483 352.58 149.483 352.58 148.25C352.58 147.183 352.863 146.2 353.43 145.3C354.03 144.367 354.847 143.633 355.88 143.1C356.913 142.533 358.063 142.25 359.33 142.25C360.83 142.25 362.013 142.65 362.88 143.45C363.78 144.217 364.23 145.217 364.23 146.45C364.23 148.117 363.58 149.533 362.28 150.7C361.013 151.833 359.43 152.4 357.53 152.4Z" fill="white"/>
</svg>
