<svg width="37" height="40" viewBox="0 0 37 40" fill="none" xmlns="http://www.w3.org/2000/svg">
<path d="M6.25167 1.01667L28.125 13.5933L23.4367 18.2817L6.25167 1.01667ZM1.72 0L21.7983 20L1.72167 40C0.7 39.5483 0 38.5433 0 37.375C0 37.3367 0 37.2983 0.00166667 37.2617V37.2667V2.735C0 2.70333 0 2.665 0 2.62667C0 1.45833 0.7 0.453333 1.70333 0.00833333L1.72167 0.00166667L1.72 0ZM34.9233 17.6567C35.6133 18.1683 36.055 18.9817 36.055 19.8967C36.055 19.9333 36.055 19.9683 36.0533 20.005V20C36.06 20.0717 36.065 20.1567 36.065 20.2417C36.065 21.1017 35.6483 21.865 35.005 22.3383L34.9983 22.3433L30.31 24.9983L25.2333 20L30.3117 14.9217L34.9233 17.6567ZM6.25167 38.9833L23.4383 21.7183L28.1267 26.4067L6.25167 38.9833Z" fill="white"/>
</svg>
