<svg width="42" height="40" viewBox="0 0 42 40" fill="none" xmlns="http://www.w3.org/2000/svg">
<path d="M21.1693 0.000145927C16.2883 -0.0182638 11.5611 1.70576 7.83792 4.86204C4.11479 8.01832 1.64022 12.3996 0.859443 17.2178C0.0786614 22.0359 1.04292 26.9745 3.57873 31.145C6.11455 35.3156 10.0554 38.4443 14.6924 39.9683C15.7172 40.1322 16.0452 39.4968 16.0452 38.9434V35.4795C10.3676 36.7093 9.15835 32.7945 9.15835 32.7945C8.77557 31.5215 7.94577 30.4297 6.82175 29.72C4.95657 28.4492 6.96523 28.4902 6.96523 28.4902C7.60861 28.5735 8.22486 28.801 8.7679 29.156C9.31094 29.5109 9.76673 29.984 10.1012 30.5399C10.6705 31.5522 11.6165 32.2989 12.7335 32.6175C13.8504 32.936 15.0479 32.8008 16.0657 32.2411C16.159 31.202 16.6164 30.2293 17.3569 29.4946C12.9707 29.0436 8.09253 27.2809 8.09253 19.4718C8.03325 17.4251 8.76768 15.4348 10.1422 13.9172C9.51814 12.1534 9.59146 10.2178 10.3471 8.50618C10.3471 8.50618 12.0688 7.95277 15.9837 10.5558C19.3402 9.65353 22.8754 9.65353 26.2319 10.5558C30.1467 7.91178 31.8684 8.50618 31.8684 8.50618C32.6241 10.2178 32.6974 12.1534 32.0734 13.9172C33.4479 15.4348 34.1823 17.4251 34.123 19.4718C34.123 27.3014 29.3269 29.0231 24.7562 29.5356C25.2484 30.0304 25.6293 30.6246 25.8732 31.2786C26.1171 31.9326 26.2184 32.6311 26.1704 33.3274V38.9434C26.1704 39.4968 26.4984 40.1527 27.5437 39.9683C32.1722 38.447 36.1074 35.3267 38.6437 31.1668C41.1801 27.007 42.1517 22.0797 41.3844 17.2685C40.617 12.4572 38.1609 8.07659 34.4564 4.91211C30.7519 1.74762 26.0414 0.00622401 21.1693 0.000145927Z" fill="white"/>
</svg>
