<svg width="38" height="40" viewBox="0 0 38 40" fill="none" xmlns="http://www.w3.org/2000/svg">
<path d="M18.9761 0C16.2484 0 2.8794 7.66755 1.53017 10.006C0.179398 12.346 0.179398 27.6662 1.53017 29.997C2.88555 32.3339 16.2545 40 18.9761 40C21.6899 40 35.059 32.3384 36.419 30.003C37.7836 27.6615 37.7836 12.3293 36.419 9.997V9.99399C35.0482 7.66014 21.6807 0 18.9761 0ZM18.9731 3.09495C21.5838 3.63803 31.9294 9.56425 33.7417 11.5535C34.5725 14.0781 34.5709 25.9143 33.7417 28.4435C31.9417 30.4297 21.5869 36.3635 18.9731 36.905C16.3608 36.3666 6.01353 30.4357 4.21046 28.4465C3.38738 25.9111 3.38738 14.0858 4.21046 11.5535C6.00892 9.56425 16.3592 3.63341 18.9731 3.09495ZM14.3637 9.23077L11.2868 12.3077H12.8252V27.6923H15.9022V21.5385H22.056V27.6923H20.5175L23.5945 30.7692L26.6714 27.6923H25.1329V13.8462H22.056V18.4615H15.9022V12.3077H17.4406L14.3637 9.23077Z" fill="white"/>
</svg>
