<svg width="41" height="40" viewBox="0 0 41 40" fill="none" xmlns="http://www.w3.org/2000/svg">
<path d="M20.5219 9.72162C18.4927 9.72162 16.5091 10.3234 14.822 11.4507C13.1348 12.578 11.8198 14.1804 11.0433 16.055C10.2667 17.9298 10.0636 19.9927 10.4594 21.9828C10.8553 23.973 11.8324 25.8012 13.2673 27.236C14.7021 28.6706 16.5301 29.6478 18.5202 30.0437C20.5106 30.4395 22.5733 30.2363 24.4481 29.4599C26.3228 28.6834 27.9251 27.3684 29.0524 25.6813C30.1799 23.994 30.7815 22.0104 30.7815 19.9812C30.7847 18.633 30.5217 17.2975 30.0073 16.0513C29.4928 14.8049 28.7373 13.6726 27.7839 12.7193C26.8305 11.7659 25.6982 11.0103 24.4521 10.4959C23.2056 9.98146 21.8701 9.71834 20.5219 9.72162ZM20.5219 26.6625C19.2004 26.6625 17.9087 26.2706 16.8099 25.5364C15.7114 24.8025 14.8549 23.759 14.3492 22.5381C13.8435 21.3172 13.7112 19.974 13.969 18.6777C14.2268 17.3818 14.8631 16.1912 15.7974 15.2568C16.7318 14.3225 17.9224 13.6862 19.2184 13.4284C20.5146 13.1706 21.8579 13.3029 23.0788 13.8086C24.2997 14.3143 25.3431 15.1707 26.0771 16.2692C26.8113 17.368 27.2031 18.6597 27.2031 19.9812C27.2031 21.7531 26.4992 23.4527 25.2463 24.7057C23.9934 25.9586 22.2938 26.6625 20.5219 26.6625ZM33.6091 9.29622C33.6091 9.79116 33.4625 10.275 33.1875 10.6864C32.9125 11.098 32.5216 11.4187 32.0644 11.6081C31.6073 11.7975 31.104 11.847 30.6186 11.7505C30.1331 11.6539 29.6875 11.4156 29.3374 11.0657C28.9876 10.7157 28.7491 10.2698 28.6525 9.78443C28.5559 9.299 28.6055 8.79588 28.7949 8.33862C28.9843 7.88139 29.3051 7.49058 29.7165 7.21562C30.1281 6.94064 30.6118 6.79387 31.1068 6.79387C31.7704 6.79387 32.407 7.05752 32.8762 7.52681C33.3456 7.99608 33.6091 8.63257 33.6091 9.29622ZM40.3905 11.7986C40.4633 8.68773 39.303 5.67432 37.1625 3.4157C34.9159 1.2479 31.901 0.0599562 28.7796 0.112606C25.5266 -0.0375352 15.5172 -0.0375352 12.2641 0.112606C9.15426 0.0452675 6.14285 1.20491 3.88128 3.34063C1.74088 5.59925 0.580487 8.61266 0.653255 11.7235C0.503114 14.9765 0.503114 24.9859 0.653255 28.239C0.580487 31.3499 1.74088 34.3632 3.88128 36.6218C6.14285 38.7576 9.15426 39.9172 12.2641 39.8499C15.5672 40.05 25.4765 40.05 28.7796 39.8499C31.8905 39.9227 34.9039 38.7623 37.1625 36.6218C39.303 34.3632 40.4633 31.3499 40.3905 28.239C40.5407 24.9859 40.5407 14.9765 40.3905 11.7235V11.7986ZM36.1365 31.8173C35.7967 32.6781 35.284 33.4596 34.6296 34.114C33.9752 34.7683 33.1938 35.2811 32.3329 35.6209C28.4483 36.4064 24.4771 36.6756 20.5219 36.4216C16.5752 36.6759 12.612 36.4066 8.73584 35.6209C7.87521 35.2811 7.0935 34.7683 6.43923 34.114C5.78494 33.4596 5.27204 32.6781 4.93227 31.8173C3.88128 29.1648 4.10649 22.909 4.10649 20.0062C4.10649 17.1035 3.88128 10.8227 4.93227 8.19519C5.26245 7.32605 5.77171 6.53606 6.42697 5.87646C7.08224 5.21689 7.86887 4.70246 8.73584 4.3666C12.612 3.58081 16.5752 3.31156 20.5219 3.56585C24.4771 3.31198 28.4483 3.58123 32.3329 4.3666C33.1938 4.70636 33.9752 5.21927 34.6296 5.87356C35.284 6.52782 35.7967 7.30953 36.1365 8.17017C37.1875 10.8227 36.9373 17.0785 36.9373 19.9812C36.9373 22.8839 37.1875 29.1648 36.1365 31.7923V31.8173Z" fill="white"/>
</svg>
