<svg width="700" height="701" viewBox="0 0 700 701" fill="none" xmlns="http://www.w3.org/2000/svg">
<path d="M123.918 542.258C112.498 537.527 99.9307 536.29 87.8069 538.701C75.6832 541.113 64.5466 547.065 55.8059 555.806C47.0653 564.546 41.1131 575.683 38.7014 587.807C36.2899 599.93 37.5267 612.498 42.2571 623.918C46.9875 635.338 54.9987 645.099 65.2766 651.967C75.5547 658.834 87.6389 662.5 100 662.5H100.014C116.58 662.481 132.463 655.892 144.177 644.178C155.891 632.464 162.481 616.581 162.5 600.015V600C162.5 587.639 158.834 575.555 151.967 565.277C145.1 554.999 135.338 546.988 123.918 542.258ZM523.918 542.258C512.498 537.527 499.931 536.29 487.807 538.701C475.683 541.113 464.547 547.065 455.806 555.806C447.065 564.546 441.113 575.683 438.701 587.807C436.29 599.93 437.528 612.498 442.258 623.918C446.988 635.338 454.999 645.099 465.277 651.967C475.555 658.834 487.639 662.5 500 662.5H500.014C516.58 662.481 532.463 655.892 544.177 644.178C555.891 632.464 562.481 616.581 562.5 600.015V600C562.5 587.639 558.834 575.555 551.967 565.277C545.1 554.999 535.338 546.988 523.918 542.258ZM507.889 131.176L196.982 193.346L187.498 195.242L186.952 204.897C185.911 223.327 179.046 240.951 167.347 255.229C155.648 269.508 139.719 279.704 121.854 284.35L112.5 286.782V513.213L121.848 515.648C136.884 519.567 150.602 527.424 161.589 538.411C172.576 549.398 180.434 563.117 184.352 578.152L186.787 587.5H413.218L415.651 578.146C420.296 560.281 430.492 544.351 444.771 532.651C459.049 520.952 476.674 514.086 495.104 513.043L504.758 512.496L506.655 503.014L568.83 192.111L570.723 182.644L562.041 178.42C544.408 169.841 530.161 155.596 521.58 137.963L517.356 129.282L507.889 131.176ZM112.194 138.701C100.07 136.29 87.5027 137.527 76.0823 142.258C64.6619 146.988 54.901 154.999 48.0334 165.277C41.1659 175.555 37.5003 187.639 37.5002 200V200.015C37.5193 216.581 44.1083 232.464 55.8225 244.178C67.5367 255.892 83.4192 262.481 99.9856 262.5H100C112.361 262.5 124.445 258.834 134.723 251.967C145.001 245.099 153.012 235.338 157.742 223.918C162.473 212.498 163.711 199.93 161.299 187.807C158.887 175.683 152.935 164.546 144.195 155.806C135.454 147.065 124.317 141.113 112.194 138.701ZM599.986 37.5C583.419 37.519 567.537 44.1091 555.823 55.8232C544.108 67.5374 537.519 83.4201 537.5 99.9863V100C537.5 112.361 541.166 124.446 548.033 134.724C554.901 145.002 564.662 153.013 576.082 157.743C587.503 162.474 600.07 163.711 612.194 161.3C624.317 158.888 635.454 152.935 644.195 144.194C652.935 135.454 658.888 124.317 661.299 112.193C663.711 100.07 662.473 87.5024 657.742 76.082C653.012 64.6618 645.001 54.9007 634.723 48.0332C624.445 41.1658 612.361 37.5 600 37.5H599.986ZM87.5002 286.749L78.1047 284.34C63.8992 280.697 50.8411 273.532 40.137 263.508C29.4328 253.483 21.428 240.922 16.8625 226.985C12.2972 213.049 11.3177 198.186 14.0159 183.771C16.714 169.357 23.0023 155.854 32.2991 144.513C41.596 133.171 53.6022 124.355 67.2073 118.881C80.8125 113.406 95.5784 111.45 110.14 113.191C124.701 114.933 138.589 120.318 150.519 128.847C162.449 137.376 172.037 148.774 178.397 161.988L182.602 170.727L192.111 168.825L503.019 106.655L512.523 104.755L513.049 95.0771C514.285 72.3571 524.344 51.0172 541.082 35.6045C557.821 20.1917 579.917 11.9236 602.661 12.5625C625.406 13.2015 647.003 22.6963 662.85 39.0244C678.694 55.3498 687.539 77.2162 687.5 99.9658C687.439 122.266 678.851 143.699 663.497 159.873C648.144 176.047 627.186 185.736 604.918 186.956L595.245 187.486L593.345 196.986L531.17 507.889L529.267 517.405L538.015 521.607C551.243 527.962 562.655 537.55 571.197 549.483C579.738 561.417 585.132 575.312 586.88 589.883C588.628 604.454 586.675 619.231 581.199 632.847C575.724 646.462 566.903 658.477 555.554 667.78C544.204 677.084 530.692 683.375 516.267 686.073C501.842 688.771 486.968 687.788 473.024 683.215C459.079 678.642 446.513 670.627 436.487 659.91C426.46 649.194 419.299 636.121 415.663 621.903L413.258 612.5H186.748L184.339 621.896C180.513 636.814 172.808 650.455 162.006 661.434C151.204 672.412 137.689 680.337 122.833 684.403C107.978 688.47 92.3108 688.532 77.4231 684.586C62.5354 680.64 48.9564 672.825 38.0657 661.935C27.1749 651.044 19.3605 637.465 15.4143 622.577C11.4681 607.689 11.5306 592.022 15.5969 577.167C19.6633 562.312 27.5884 548.797 38.5667 537.994C49.5448 527.192 63.1859 519.487 78.1047 515.661L87.5002 513.252V286.749Z" fill="black" stroke="#F5A623" stroke-width="25"/>
</svg>
