<svg width="179" height="41" viewBox="0 0 179 41" fill="none" xmlns="http://www.w3.org/2000/svg">
<mask id="mask0_18_2" style="mask-type:luminance" maskUnits="userSpaceOnUse" x="0" y="0" width="40" height="41">
<path d="M0 0H40V41H0V0Z" fill="white"/>
</mask>
<g mask="url(#mask0_18_2)">
<path fill-rule="evenodd" clip-rule="evenodd" d="M13.715 0.516011C11.458 0.516011 9.29501 1.41201 7.69901 3.00801L6.7082e-06 10.707V14.231C6.7082e-06 16.721 1.07001 18.961 2.77401 20.516C1.89888 21.3124 1.2 22.2831 0.722271 23.3657C0.244541 24.4482 -0.00148113 25.6187 6.7082e-06 26.802V30.326L7.69901 38.024C8.51218 38.8373 9.48182 39.4773 10.5493 39.9052C11.6168 40.3332 12.76 40.5403 13.9098 40.5139C15.0596 40.4875 16.1921 40.2283 17.2389 39.7519C18.2857 39.2755 19.225 38.5917 20 37.742C20.7751 38.5916 21.7145 39.2752 22.7612 39.7516C23.808 40.2279 24.9405 40.4871 26.0902 40.5135C27.24 40.5398 28.3831 40.3328 29.4506 39.9049C30.5181 39.477 31.4878 38.8372 32.301 38.024L40 30.326V26.802C40 24.312 38.93 22.072 37.226 20.516C38.101 19.7197 38.7998 18.7492 39.2775 17.6668C39.7553 16.5844 40.0014 15.4141 40 14.231V10.707L32.301 3.00701C31.4877 2.1939 30.518 1.55412 29.4504 1.12632C28.3829 0.69853 27.2397 0.491608 26.09 0.518059C24.9402 0.54451 23.8078 0.803787 22.7611 1.28022C21.7143 1.75665 20.7751 2.44036 20 3.29001C19.2037 2.41501 18.2332 1.7162 17.1508 1.23848C16.0684 0.760752 14.8981 0.514662 13.715 0.516011ZM25.759 20.516C25.663 20.4282 25.5689 20.3382 25.477 20.246L20 14.77L14.523 20.247C14.4311 20.3392 14.3371 20.4292 14.241 20.517C14.337 20.604 14.431 20.694 14.523 20.786L20 26.262L25.477 20.786C25.569 20.693 25.663 20.604 25.759 20.516ZM22.222 30.326V32.008C22.2218 32.8117 22.4599 33.5974 22.9063 34.2657C23.3527 34.934 23.9872 35.4549 24.7297 35.7626C25.4722 36.0702 26.2892 36.1508 27.0774 35.994C27.8657 35.8373 28.5897 35.4503 29.158 34.882L35.556 28.485V26.802C35.5564 25.9981 35.3183 25.2122 34.8719 24.5437C34.4255 23.8751 33.7908 23.354 33.0481 23.0464C32.3055 22.7387 31.4882 22.6582 30.6998 22.8151C29.9114 22.9721 29.1872 23.3594 28.619 23.928L22.222 30.326ZM17.778 30.326L11.381 23.928C10.8128 23.3594 10.0888 22.9722 9.30047 22.8152C8.51215 22.6582 7.69498 22.7386 6.95235 23.0462C6.20972 23.3537 5.57501 23.8747 5.12851 24.543C4.68201 25.2114 4.4438 25.9972 4.44401 26.801V28.485L10.841 34.882C11.4092 35.4506 12.1332 35.8379 12.9215 35.9948C13.7099 36.1518 14.527 36.0714 15.2697 35.7639C16.0123 35.4563 16.647 34.9354 17.0935 34.267C17.54 33.5986 17.7782 32.8128 17.778 32.009V30.326ZM17.778 9.02401V10.707L11.381 17.104C10.8128 17.6726 10.0888 18.0599 9.30047 18.2168C8.51215 18.3738 7.69498 18.2934 6.95235 17.9859C6.20972 17.6783 5.57501 17.1574 5.12851 16.489C4.68201 15.8206 4.4438 15.0348 4.44401 14.231V12.548L10.841 6.15101C11.4092 5.58244 12.1332 5.19516 12.9215 5.03819C13.7099 4.88122 14.527 4.9616 15.2697 5.26916C16.0123 5.57673 16.647 6.09765 17.0935 6.76603C17.54 7.43441 17.7782 8.22021 17.778 9.02401ZM28.619 17.104L22.222 10.707V9.02401C22.222 8.22042 22.4603 7.43487 22.9067 6.7667C23.3532 6.09854 23.9877 5.57776 24.7302 5.27024C25.4726 4.96272 26.2895 4.88226 27.0777 5.03903C27.8658 5.19581 28.5898 5.58278 29.158 6.15101L35.556 12.548V14.231C35.5562 15.0348 35.318 15.8206 34.8715 16.489C34.425 17.1574 33.7903 17.6783 33.0477 17.9859C32.305 18.2934 31.4879 18.3738 30.6995 18.2168C29.9112 18.0599 29.1872 17.6726 28.619 17.104Z" fill="#C7231A"/>
</g>
<path d="M49.825 20.2C49.825 18.4667 50.2 16.925 50.95 15.575C51.7 14.2083 52.7417 13.15 54.075 12.4C55.425 11.6333 56.95 11.25 58.65 11.25C60.7333 11.25 62.5167 11.8 64 12.9C65.4833 14 66.475 15.5 66.975 17.4H62.275C61.925 16.6667 61.425 16.1083 60.775 15.725C60.1417 15.3417 59.4167 15.15 58.6 15.15C57.2833 15.15 56.2167 15.6083 55.4 16.525C54.5833 17.4417 54.175 18.6667 54.175 20.2C54.175 21.7333 54.5833 22.9583 55.4 23.875C56.2167 24.7917 57.2833 25.25 58.6 25.25C59.4167 25.25 60.1417 25.0583 60.775 24.675C61.425 24.2917 61.925 23.7333 62.275 23H66.975C66.475 24.9 65.4833 26.4 64 27.5C62.5167 28.5833 60.7333 29.125 58.65 29.125C56.95 29.125 55.425 28.75 54.075 28C52.7417 27.2333 51.7 26.175 50.95 24.825C50.2 23.475 49.825 21.9333 49.825 20.2ZM73.868 17.375C74.368 16.6083 74.993 16.0083 75.743 15.575C76.493 15.125 77.3263 14.9 78.243 14.9V19.425H77.068C76.0013 19.425 75.2013 19.6583 74.668 20.125C74.1346 20.575 73.868 21.375 73.868 22.525V29H69.593V15.05H73.868V17.375ZM94.5363 15.05L85.7863 35.625H81.1863L84.3863 28.525L78.7113 15.05H83.4863L86.7113 23.775L89.9113 15.05H94.5363ZM100.357 17.025C100.774 16.375 101.349 15.85 102.082 15.45C102.816 15.05 103.674 14.85 104.657 14.85C105.807 14.85 106.849 15.1417 107.782 15.725C108.716 16.3083 109.449 17.1417 109.982 18.225C110.532 19.3083 110.807 20.5667 110.807 22C110.807 23.4333 110.532 24.7 109.982 25.8C109.449 26.8833 108.716 27.725 107.782 28.325C106.849 28.9083 105.807 29.2 104.657 29.2C103.691 29.2 102.832 29 102.082 28.6C101.349 28.2 100.774 27.6833 100.357 27.05V35.65H96.0822V15.05H100.357V17.025ZM106.457 22C106.457 20.9333 106.157 20.1 105.557 19.5C104.974 18.8833 104.249 18.575 103.382 18.575C102.532 18.575 101.807 18.8833 101.207 19.5C100.624 20.1167 100.332 20.9583 100.332 22.025C100.332 23.0917 100.624 23.9333 101.207 24.55C101.807 25.1667 102.532 25.475 103.382 25.475C104.232 25.475 104.957 25.1667 105.557 24.55C106.157 23.9167 106.457 23.0667 106.457 22ZM120.825 25.375V29H118.65C117.1 29 115.892 28.625 115.025 27.875C114.158 27.1083 113.725 25.8667 113.725 24.15V18.6H112.025V15.05H113.725V11.65H118V15.05H120.8V18.6H118V24.2C118 24.6167 118.1 24.9167 118.3 25.1C118.5 25.2833 118.833 25.375 119.3 25.375H120.825ZM129.556 29.2C128.19 29.2 126.956 28.9083 125.856 28.325C124.773 27.7417 123.915 26.9083 123.281 25.825C122.665 24.7417 122.356 23.475 122.356 22.025C122.356 20.5917 122.673 19.3333 123.306 18.25C123.94 17.15 124.806 16.3083 125.906 15.725C127.006 15.1417 128.24 14.85 129.606 14.85C130.973 14.85 132.206 15.1417 133.306 15.725C134.406 16.3083 135.273 17.15 135.906 18.25C136.54 19.3333 136.856 20.5917 136.856 22.025C136.856 23.4583 136.531 24.725 135.881 25.825C135.248 26.9083 134.373 27.7417 133.256 28.325C132.156 28.9083 130.923 29.2 129.556 29.2ZM129.556 25.5C130.373 25.5 131.065 25.2 131.631 24.6C132.215 24 132.506 23.1417 132.506 22.025C132.506 20.9083 132.223 20.05 131.656 19.45C131.106 18.85 130.423 18.55 129.606 18.55C128.773 18.55 128.081 18.85 127.531 19.45C126.981 20.0333 126.706 20.8917 126.706 22.025C126.706 23.1417 126.973 24 127.506 24.6C128.056 25.2 128.74 25.5 129.556 25.5ZM143.773 22.05C144.513 22.05 145.16 22.1933 145.713 22.48C146.273 22.76 146.703 23.1667 147.003 23.7C147.31 24.2267 147.463 24.8433 147.463 25.55C147.463 26.2567 147.31 26.87 147.003 27.39C146.703 27.91 146.273 28.31 145.713 28.59C145.16 28.8633 144.513 29 143.773 29H141.503V22.05H143.773ZM143.773 28.07C144.586 28.07 145.21 27.85 145.643 27.41C146.076 26.97 146.293 26.35 146.293 25.55C146.293 24.7433 146.076 24.1133 145.643 23.66C145.21 23.2067 144.586 22.98 143.773 22.98H142.643V28.07H143.773ZM148.213 26.22C148.213 25.6667 148.326 25.1767 148.553 24.75C148.786 24.3233 149.099 23.9933 149.493 23.76C149.893 23.52 150.333 23.4 150.813 23.4C151.246 23.4 151.623 23.4867 151.943 23.66C152.269 23.8267 152.529 24.0367 152.723 24.29V23.49H153.873V29H152.723V28.18C152.529 28.44 152.266 28.6567 151.933 28.83C151.599 29.0033 151.219 29.09 150.793 29.09C150.319 29.09 149.886 28.97 149.493 28.73C149.099 28.4833 148.786 28.1433 148.553 27.71C148.326 27.27 148.213 26.7733 148.213 26.22ZM152.723 26.24C152.723 25.86 152.643 25.53 152.483 25.25C152.329 24.97 152.126 24.7567 151.873 24.61C151.619 24.4633 151.346 24.39 151.053 24.39C150.759 24.39 150.486 24.4633 150.233 24.61C149.979 24.75 149.773 24.96 149.613 25.24C149.459 25.5133 149.383 25.84 149.383 26.22C149.383 26.6 149.459 26.9333 149.613 27.22C149.773 27.5067 149.979 27.7267 150.233 27.88C150.493 28.0267 150.766 28.1 151.053 28.1C151.346 28.1 151.619 28.0267 151.873 27.88C152.126 27.7333 152.329 27.52 152.483 27.24C152.643 26.9533 152.723 26.62 152.723 26.24ZM157.37 29.09C156.937 29.09 156.547 29.0133 156.2 28.86C155.86 28.7 155.59 28.4867 155.39 28.22C155.19 27.9467 155.083 27.6433 155.07 27.31H156.25C156.27 27.5433 156.38 27.74 156.58 27.9C156.787 28.0533 157.043 28.13 157.35 28.13C157.67 28.13 157.917 28.07 158.09 27.95C158.27 27.8233 158.36 27.6633 158.36 27.47C158.36 27.2633 158.26 27.11 158.06 27.01C157.867 26.91 157.557 26.8 157.13 26.68C156.717 26.5667 156.38 26.4567 156.12 26.35C155.86 26.2433 155.633 26.08 155.44 25.86C155.253 25.64 155.16 25.35 155.16 24.99C155.16 24.6967 155.247 24.43 155.42 24.19C155.593 23.9433 155.84 23.75 156.16 23.61C156.487 23.47 156.86 23.4 157.28 23.4C157.907 23.4 158.41 23.56 158.79 23.88C159.177 24.1933 159.383 24.6233 159.41 25.17H158.27C158.25 24.9233 158.15 24.7267 157.97 24.58C157.79 24.4333 157.547 24.36 157.24 24.36C156.94 24.36 156.71 24.4167 156.55 24.53C156.39 24.6433 156.31 24.7933 156.31 24.98C156.31 25.1267 156.363 25.25 156.47 25.35C156.577 25.45 156.707 25.53 156.86 25.59C157.013 25.6433 157.24 25.7133 157.54 25.8C157.94 25.9067 158.267 26.0167 158.52 26.13C158.78 26.2367 159.003 26.3967 159.19 26.61C159.377 26.8233 159.473 27.1067 159.48 27.46C159.48 27.7733 159.393 28.0533 159.22 28.3C159.047 28.5467 158.8 28.74 158.48 28.88C158.167 29.02 157.797 29.09 157.37 29.09ZM163.562 23.4C163.982 23.4 164.355 23.49 164.682 23.67C165.015 23.85 165.275 24.1167 165.462 24.47C165.655 24.8233 165.752 25.25 165.752 25.75V29H164.622V25.92C164.622 25.4267 164.499 25.05 164.252 24.79C164.005 24.5233 163.669 24.39 163.242 24.39C162.815 24.39 162.475 24.5233 162.222 24.79C161.975 25.05 161.852 25.4267 161.852 25.92V29H160.712V21.6H161.852V24.13C162.045 23.8967 162.289 23.7167 162.582 23.59C162.882 23.4633 163.209 23.4 163.562 23.4ZM168.336 22.05V26.48C168.336 27.0067 168.473 27.4033 168.746 27.67C169.026 27.9367 169.413 28.07 169.906 28.07C170.406 28.07 170.793 27.9367 171.066 27.67C171.346 27.4033 171.486 27.0067 171.486 26.48V22.05H172.626V26.46C172.626 27.0267 172.503 27.5067 172.256 27.9C172.009 28.2933 171.679 28.5867 171.266 28.78C170.853 28.9733 170.396 29.07 169.896 29.07C169.396 29.07 168.939 28.9733 168.526 28.78C168.119 28.5867 167.796 28.2933 167.556 27.9C167.316 27.5067 167.196 27.0267 167.196 26.46V22.05H168.336ZM175.25 22.05V29H174.11V22.05H175.25Z" fill="#091540"/>
</svg>
